<svg xmlns="http://www.w3.org/2000/svg" width="1041" height="153" viewBox="0 0 1041 153">
  <g id="Group_13" data-name="Group 13" transform="translate(20 336)">
    <text id="PoochFriendly" transform="translate(167 -221)" fill="#f95124" font-size="128" font-family="BalsamiqSans-Bold, Balsamiq Sans" font-weight="700" letter-spacing="0.02em"><tspan x="0" y="0">PoochFriendly</tspan></text>
    <g id="XMLID_195_" transform="translate(-20 -336)">
      <path id="XMLID_441_" d="M73.288,248.5a18.5,18.5,0,0,1,5.294-10.528l.13-.129c10.572-10.572,8.032-30.255-5.675-43.961s-33.389-16.247-43.961-5.675l-.141.142a18.482,18.482,0,0,1-10.519,5.293,21.65,21.65,0,0,0-5.647,41.165A38.28,38.28,0,0,1,32.12,254.159,21.647,21.647,0,0,0,73.288,248.5Z" transform="translate(0 -128.291)" fill="#f95124"/>
      <ellipse id="XMLID_481_" cx="18.687" cy="14.818" rx="18.687" ry="14.818" transform="translate(59.696 26.423) rotate(-45)" fill="#f95124"/>
      <ellipse id="XMLID_483_" cx="18.687" cy="14.818" rx="18.687" ry="14.818" transform="translate(4.021 28.527) rotate(-45)" fill="#f95124"/>
      <ellipse id="XMLID_84_" cx="18.687" cy="14.818" rx="18.687" ry="14.818" transform="translate(92.649 59.383) rotate(-45)" fill="#f95124"/>
      <ellipse id="XMLID_5_" cx="18.687" cy="14.818" rx="18.687" ry="14.818" transform="translate(89.855 114.38) rotate(-45)" fill="#f95124"/>
    </g>
  </g>
</svg>
